<?xml version="1.0" encoding="UTF-8"?>
<svg width="36px" height="36px" viewBox="0 0 36 36" version="1.1" xmlns="http://www.w3.org/2000/svg" xmlns:xlink="http://www.w3.org/1999/xlink">
    <title>icon-set/btn-icon-add</title>
    <g id="icon-set-Web最新整理" stroke="none" stroke-width="1" fill="none" fill-rule="evenodd">
        <g id="images" transform="translate(-1525.000000, -72.000000)" fill="#FFFFFF" fill-rule="nonzero">
            <g id="icon-set/btn-icon-add" transform="translate(1525.000000, 72.000000)">
                <path d="M32.7857142,14.7857143 L21.8571429,14.7857143 C21.5021275,14.7857143 21.2142857,14.4978725 21.2142857,14.1428571 L21.2142857,3.21428571 C21.2142857,1.43920896 19.7750768,0 18,0 C16.2249232,0 14.7857143,1.43920896 14.7857143,3.21428571 L14.7857143,14.1428571 C14.7857143,14.4978725 14.4978725,14.7857143 14.1428571,14.7857143 L3.21428571,14.7857143 C1.43920896,14.7857143 0,16.2249232 0,18 C0,19.7750768 1.43920896,21.2142857 3.21428571,21.2142857 L14.1428571,21.2142857 C14.4978725,21.2142857 14.7857143,21.5021275 14.7857143,21.8571429 L14.7857143,32.7857142 C14.7857143,34.5607911 16.2249232,36 18,36 C19.7750768,36 21.2142857,34.5607911 21.2142857,32.7857142 L21.2142857,21.8571429 C21.2142857,21.5021275 21.5021275,21.2142857 21.8571429,21.2142857 L32.7857142,21.2142857 C34.5607911,21.2142857 36,19.7750768 36,18 C36,16.2249232 34.5607911,14.7857143 32.7857142,14.7857143 Z" id="Path"></path>
            </g>
        </g>
    </g>
</svg>