<?xml version="1.0" encoding="UTF-8"?>
<svg width="19px" height="12px" viewBox="0 0 19 12" version="1.1" xmlns="http://www.w3.org/2000/svg" xmlns:xlink="http://www.w3.org/1999/xlink">
    <title>icon-set/eyes-open</title>
    <g id="icon-set-Web最新整理" stroke="none" stroke-width="1" fill="none" fill-rule="evenodd">
        <g id="images" transform="translate(-1429.000000, -231.000000)" fill="#333333" fill-rule="nonzero">
            <g id="icon-set/eyes-open" transform="translate(1429.000000, 231.000000)">
                <path d="M18.7504543,5.6221095 C18.7504543,7.4186906 14.8849867,11.2500003 9.37522693,11.2500003 C4.00618129,11.2511559 0,7.4820223 0,5.6221095 C0,3.7632886 4.02384551,0 9.37522693,0 C14.9271454,0 18.7516314,3.7632886 18.7504543,5.6221095 L18.7504543,5.6221095 L18.7504543,5.6221095 Z M9.38342743,1.02733046 C6.88778333,1.02733046 4.86592574,3.08543844 4.86592574,5.6244218 C4.86592574,8.1634051 6.88896093,10.2226907 9.38342743,10.2226907 C11.8791357,10.2226907 13.9021923,8.1634051 13.9021923,5.6244218 C13.9021923,3.08543844 11.8791143,1.02733046 9.38342743,1.02733046 L9.38342743,1.02733046 L9.38342743,1.02733046 Z M9.37522693,2.69026851 C7.78613213,2.69026851 6.49839959,4.0013925 6.49839959,5.6185768 C6.49839959,7.2357182 7.78615353,8.5456646 9.37522693,8.5456646 C10.9643003,8.5456646 12.2520542,7.2345406 12.2520542,5.6172922 C12.2520542,4.0002364 10.9643217,2.69026851 9.37522693,2.69026851 L9.37522693,2.69026851 L9.37522693,2.69026851 Z" id="Shape"></path>
            </g>
        </g>
    </g>
</svg>