<?xml version="1.0" encoding="UTF-8"?>
<svg width="19px" height="16px" viewBox="0 0 19 16" version="1.1" xmlns="http://www.w3.org/2000/svg" xmlns:xlink="http://www.w3.org/1999/xlink">
    <title>icon-set/eyes-close</title>
    <g id="icon-set-Web最新整理" stroke="none" stroke-width="1" fill="none" fill-rule="evenodd">
        <g id="images" transform="translate(-1533.000000, -231.000000)" fill="#333333" fill-rule="nonzero">
            <g id="icon-set/eyes-close" transform="translate(1533.000000, 231.000000)">
                <path d="M18.7504543,7.51027958 C18.7504543,9.30686068 14.8849867,13.1381704 9.37522693,13.1381704 C4.00618129,13.139326 0,9.37019238 0,7.51027958 C0,5.65145868 4.02384551,1.88817008 9.37522693,1.88817008 C14.9271454,1.88817008 18.7516314,5.65145868 18.7504543,7.51027958 L18.7504543,7.51027958 L18.7504543,7.51027958 Z M9.38342743,2.91550054 C6.88778333,2.91550054 4.86592574,4.97360852 4.86592574,7.51259188 C4.86592574,10.0515752 6.88896093,12.1108608 9.38342743,12.1108608 C11.8791357,12.1108608 13.9021923,10.0515752 13.9021923,7.51259188 C13.9021923,4.97360852 11.8791143,2.91550054 9.38342743,2.91550054 L9.38342743,2.91550054 L9.38342743,2.91550054 Z M9.37522693,4.57843859 C7.78613213,4.57843859 6.49839959,5.88956258 6.49839959,7.50674688 C6.49839959,9.12388828 7.78615353,10.4338347 9.37522693,10.4338347 C10.9643003,10.4338347 12.2520542,9.12271068 12.2520542,7.50546228 C12.2520542,5.88840648 10.9643217,4.57843859 9.37522693,4.57843859 L9.37522693,4.57843859 L9.37522693,4.57843859 Z" id="Shape"></path>
                <path d="M9.12522704,-1.86205694 L9.62522704,-1.86205694 C10.1775117,-1.86205694 10.625227,-1.41434169 10.625227,-0.862056941 L10.625227,15.8883971 C10.625227,16.4406819 10.1775117,16.8883971 9.62522704,16.8883971 L9.12522704,16.8883971 C8.57294234,16.8883971 8.12522704,16.4406819 8.12522704,15.8883971 L8.12522704,-0.862056941 C8.12522704,-1.41434169 8.57294234,-1.86205694 9.12522704,-1.86205694 Z" id="Rectangle" transform="translate(9.375227, 7.513170) rotate(45.000000) translate(-9.375227, -7.513170) "></path>
            </g>
        </g>
    </g>
</svg>