<?xml version="1.0" encoding="UTF-8"?>
<svg width="16px" height="14px" viewBox="0 0 16 14" version="1.1" xmlns="http://www.w3.org/2000/svg" xmlns:xlink="http://www.w3.org/1999/xlink">
    <title>icon-set/heart-1</title>
    <g id="icon-set-Web最新整理" stroke="none" stroke-width="1" fill="none" fill-rule="evenodd">
        <g id="images" transform="translate(-1433.000000, -371.000000)" fill="#FFFFFF">
            <g id="icon-set/heart-1" transform="translate(1433.000000, 371.000000)">
                <path d="M11.3135,0 C10.1145,0 8.9145,0.478 7.9995,1.433 C7.0845,0.478 5.8855,0 4.6865,0 C3.4865,0 2.2875,0.478 1.3725,1.433 C-0.4575,3.343 -0.4575,6.441 1.3725,8.351 C3.2025,10.262 7.9995,14 7.9995,14 C7.9995,14 12.7975,10.262 14.6275,8.351 C16.4575,6.441 16.4575,3.343 14.6275,1.433 C13.7125,0.478 12.5125,0 11.3135,0 M11.3135,1.2 C12.2345,1.2 13.1035,1.578 13.7605,2.263 C15.1495,3.713 15.1495,6.071 13.7605,7.521 C12.4335,8.907 9.4025,11.356 7.9995,12.471 C6.5965,11.356 3.5665,8.907 2.2395,7.521 C0.8505,6.071 0.8505,3.713 2.2395,2.263 C2.8955,1.578 3.7645,1.2 4.6865,1.2 C5.6075,1.2 6.4765,1.578 7.1335,2.263 L7.9995,3.168 L8.8665,2.263 C9.5225,1.578 10.3915,1.2 11.3135,1.2" id="Fill-1"></path>
            </g>
        </g>
    </g>
</svg>