<?xml version="1.0" encoding="UTF-8"?>
<svg width="40px" height="40px" viewBox="0 0 40 40" version="1.1" xmlns="http://www.w3.org/2000/svg" xmlns:xlink="http://www.w3.org/1999/xlink">
    <title>icon-set/icon-light</title>
    <g  stroke="none" stroke-width="1" fill="none" fill-rule="evenodd">
        <g id="images" transform="translate(-59.000000, -521.000000)" fill="#FFFFFF">
            <g id="icon-set/icon-light" transform="translate(59.000000, 521.000000)">
                <path d="M20,33 C20.967,33 21.75,33.784 21.75,34.75 L21.75,38.25 C21.75,39.217 20.967,40 20,40 C19.033,40 18.25,39.217 18.25,38.25 L18.25,34.75 C18.25,33.784 19.033,33 20,33 Z M31.6683,29.1923 L34.1423,31.6673 C34.8263,32.3503 34.8263,33.4583 34.1423,34.1413 C33.8013,34.4833 33.3533,34.6543 32.9053,34.6543 C32.4573,34.6543 32.0093,34.4833 31.6683,34.1413 L29.1933,31.6673 C28.5093,30.9843 28.5093,29.8753 29.1933,29.1923 C29.8773,28.5083 30.9843,28.5083 31.6683,29.1923 Z M10.8077,29.1923 C11.4917,29.8753 11.4917,30.9843 10.8077,31.6673 L8.3327,34.1413 C7.9917,34.4833 7.5437,34.6543 7.0957,34.6543 C6.6477,34.6543 6.1997,34.4833 5.8587,34.1413 C5.1747,33.4583 5.1747,32.3503 5.8587,31.6673 L8.3327,29.1923 C9.0167,28.5083 10.1237,28.5083 10.8077,29.1923 Z M20,9.5 C25.79,9.5 30.5,14.21 30.5,20 C30.5,25.79 25.79,30.5 20,30.5 C14.21,30.5 9.5,25.79 9.5,20 C9.5,14.21 14.21,9.5 20,9.5 Z M20,13 C16.141,13 13,16.14 13,20 C13,23.86 16.141,27 20,27 C23.859,27 27,23.86 27,20 C27,16.14 23.859,13 20,13 Z M5.25,18.25 C6.217,18.25 7,19.034 7,20 C7,20.966 6.217,21.75 5.25,21.75 L1.75,21.75 C0.783,21.75 0,20.966 0,20 C0,19.034 0.783,18.25 1.75,18.25 L5.25,18.25 Z M38.25,18.25 C39.217,18.25 40,19.034 40,20 C40,20.966 39.217,21.75 38.25,21.75 L34.75,21.75 C33.783,21.75 33,20.966 33,20 C33,19.034 33.783,18.25 34.75,18.25 L38.25,18.25 Z M8.3333,5.8578 L10.8073,8.3328 C11.4913,9.0158 11.4913,10.1238 10.8073,10.8068 C10.4663,11.1488 10.0183,11.3198 9.5703,11.3198 C9.1223,11.3198 8.6743,11.1488 8.3333,10.8068 L5.8583,8.3328 C5.1743,7.6498 5.1743,6.5408 5.8583,5.8578 C6.5423,5.1738 7.6493,5.1738 8.3333,5.8578 Z M34.1427,5.8578 C34.8267,6.5408 34.8267,7.6498 34.1427,8.3328 L31.6677,10.8068 C31.3267,11.1488 30.8787,11.3198 30.4307,11.3198 C29.9827,11.3198 29.5347,11.1488 29.1937,10.8068 C28.5097,10.1238 28.5097,9.0158 29.1937,8.3328 L31.6677,5.8578 C32.3517,5.1738 33.4587,5.1738 34.1427,5.8578 Z M20,0 C20.967,0 21.75,0.784 21.75,1.75 L21.75,5.25 C21.75,6.216 20.967,7 20,7 C19.033,7 18.25,6.216 18.25,5.25 L18.25,1.75 C18.25,0.784 19.033,0 20,0 Z" id="Combined-Shape"></path>
            </g>
        </g>
    </g>
</svg>