<?xml version="1.0" encoding="UTF-8"?>
<svg width="15px" height="4px" viewBox="0 0 15 4" version="1.1" xmlns="http://www.w3.org/2000/svg" xmlns:xlink="http://www.w3.org/1999/xlink">
    <title>icon-set/icon-more</title>
    <g id="icon-set-Web最新整理" stroke="none" stroke-width="1" fill="none" fill-rule="evenodd">
        <g id="images" transform="translate(-1433.000000, -963.000000)" fill="#FFFFFF" fill-rule="nonzero">
            <g id="icon-set/icon-more" transform="translate(1433.000000, 963.000000)">
                <path d="M2,0 C3.10275,0 4,0.89725 4,2 C4,3.10275 3.10275,4 2,4 C0.89725,4 0,3.10275 0,2 C0,0.89725 0.89725,0 2,0 Z M12.8571429,0 C13.9598929,0 14.8571429,0.89725 14.8571429,2 C14.8571429,3.10275 13.9598929,4 12.8571429,4 C11.7543929,4 10.8571429,3.10275 10.8571429,2 C10.8571429,0.89725 11.7543929,0 12.8571429,0 Z M7.7142857,0 C8.8170357,0 9.7142857,0.89725 9.7142857,2 C9.7142857,3.10275 8.8170357,4 7.7142857,4 C6.6115357,4 5.7142857,3.10275 5.7142857,2 C5.7142857,0.89725 6.6115357,0 7.7142857,0 Z" id="Shape"></path>
            </g>
        </g>
    </g>
</svg>