<?xml version="1.0" encoding="UTF-8"?>
<svg width="15px" height="15px" viewBox="0 0 15 15" version="1.1" xmlns="http://www.w3.org/2000/svg" xmlns:xlink="http://www.w3.org/1999/xlink">
    <title>icon-set/icon-error</title>
    <g id="icon-set-Web最新整理" stroke="none" stroke-width="1" fill="none" fill-rule="evenodd">
        <g id="images" transform="translate(-1631.000000, -826.000000)" fill="#F35E5E" fill-rule="nonzero">
            <g id="icon-set/icon-error" transform="translate(1631.000000, 826.000000)">
                <path d="M7.5,0 C3.375,0 0,3.375 0,7.5 C0,11.625 3.375,15 7.5,15 C11.625,15 15,11.625 15,7.5 C15,3.375 11.625,0 7.5,0 Z M7.5,1.5 C8.325,1.5 8.925,2.175 8.85,3 L8.25,9 L6.75,9 L6.15,3 C6.075,2.175 6.675,1.5 7.5,1.5 Z M7.5,13.5 C6.675,13.5 6,12.825 6,12 C6,11.175 6.675,10.5 7.5,10.5 C8.325,10.5 9,11.175 9,12 C9,12.825 8.325,13.5 7.5,13.5 Z" id="Shape"></path>
            </g>
        </g>
    </g>
</svg>