<?xml version="1.0" encoding="UTF-8"?>
<svg width="20px" height="20px" viewBox="0 0 20 20" version="1.1" xmlns="http://www.w3.org/2000/svg" xmlns:xlink="http://www.w3.org/1999/xlink">
    <title>icon-set/icon-reload-gold</title>
    <g id="icon-set-Web最新整理" stroke="none" stroke-width="1" fill="none" fill-rule="evenodd">
        <g id="images" transform="translate(-1429.000000, -156.000000)" fill="#D6BA78" fill-rule="nonzero">
            <g id="icon-set/icon-reload-gold" transform="translate(1439.000000, 166.000000) scale(-1, 1) rotate(180.000000) translate(-1439.000000, -166.000000) translate(1429.000000, 156.000000)">
                <path d="M1.69399056,9.33887412 C2.06347104,9.28922547 2.39046185,9.58004067 2.35957091,9.93841975 C2.34929218,10.0574126 2.34526814,10.1538494 2.34388723,10.2313892 L2.34332487,10.4651126 C2.34332487,14.4652742 5.803382,17.7280435 9.99771373,17.7280435 C12.458053,17.7280435 14.6879405,16.5994958 16.070495,14.8675661 L16.070495,14.8675661 L15.1331838,13.9736669 C14.9692003,13.8171973 14.9222976,13.5937225 14.992593,13.3925952 C15.0628884,13.1914679 15.238666,13.0462093 15.4612681,13.0238245 C15.3426772,13.0399289 16.1867118,12.9252845 17.1163429,12.7990167 L17.6773771,12.7228142 C18.5132867,12.6092772 19.276451,12.5056237 19.3275155,12.498696 C19.7089463,12.4380226 20.0437477,12.7785237 19.9953219,13.1244254 L19.9953219,13.1244254 L19.4329977,16.8117595 C19.4095269,17.0240607 19.2572201,17.2028032 19.0463339,17.258672 C18.8584108,17.3304073 18.6026917,17.2876492 18.4488229,17.124587 L18.4488229,17.124587 L17.7576238,16.4653736 C15.9299432,18.5995207 13.1141435,20 9.99775279,20 C4.58500638,20 0.129058572,15.8284705 0,10.6996866 L0,10.6996866 L0.000512133333,10.3643296 C0.00146928178,10.2641581 0.00394055644,10.1493576 0.00982974932,10.0248672 C0.0224829226,9.75643677 0.234501683,9.53486152 0.513379182,9.49735498 L0.513379182,9.49735498 L1.69399056,9.33887412 Z M10.0024831,0 C15.5119701,0 20,4.34985692 20,9.63694835 C20,9.74175057 19.9980473,9.84835973 19.9942592,9.95534533 C19.9845353,10.227816 19.7734565,10.4544734 19.4935673,10.4939625 L19.4935673,10.4939625 L18.312776,10.6605769 C17.9434174,10.7126393 17.6195941,10.4237555 17.6426743,10.0666224 C17.6519296,9.92421335 17.6568503,9.78056203 17.6568503,9.636986 L17.6568503,9.636986 L17.6568503,9.61436167 C17.6451346,5.58263823 14.1850834,2.29631307 10.0025612,2.29631307 C7.57736216,2.29631307 5.37093523,3.40302303 3.97676115,5.11964882 L3.97676115,5.11964882 L4.86715804,5.97794287 C5.03113946,6.13601203 5.07804152,6.36187888 5.00774702,6.56515907 C4.93745253,6.76843923 4.76167726,6.9152527 4.53907802,6.93787703 C4.65766744,6.92160027 3.81364384,7.03747185 2.8840248,7.16509122 L2.32299808,7.24210937 C1.48709922,7.35686158 0.723944924,7.46162463 0.672880995,7.4686265 C0.490544888,7.55652635 -0.0584160355,7.29501017 0.00508332266,6.8361993 L0.00508332266,6.8361993 L0.567400195,3.10939612 C0.590870755,2.8948226 0.743175484,2.71416677 0.95405895,2.65770005 C1.16490338,2.57864665 1.3992574,2.63511335 1.55156213,2.79322017 L1.55156213,2.79322017 L2.30137004,3.50470077 C4.12902682,1.39284563 6.92124119,0 10.0024831,0 Z" id="Shape"></path>
            </g>
        </g>
    </g>
</svg>