<?xml version="1.0" encoding="UTF-8"?>
<svg width="42px" height="50px" viewBox="0 0 42 50" version="1.1" xmlns="http://www.w3.org/2000/svg" xmlns:xlink="http://www.w3.org/1999/xlink">
    <title>icon-set/icon-lock</title>
    <g id="icon-set-Web最新整理" stroke="none" stroke-width="1" fill="none" fill-rule="evenodd">
        <g id="images" transform="translate(-174.000000, -1091.000000)" fill="#010101">
            <g id="icon-set/icon-lock" transform="translate(174.000000, 1091.000000)">
                <path d="M7.29177415,13.5417025 L7.29177415,20.8332473 L4.16680998,20.8332473 C1.86470565,20.8332473 0,22.6978383 0,24.9999427 L0,45.833534 C0,48.1355237 1.86470565,50 4.16680998,50 L37.5001433,50 C39.802133,50 41.6671826,48.1355237 41.6671826,45.833534 L41.6671826,24.9999427 C41.6671826,22.6978383 39.802133,20.8332473 37.5001433,20.8332473 L34.3754084,20.8332473 L34.3754084,13.5417025 C34.3754084,6.06270107 28.3123634,0 20.8335913,0 C13.3548192,0 7.29177415,6.06258642 7.29177415,13.5417025 Z M12.5002006,20.8332473 L12.5002006,13.5417025 C12.5002006,8.93760849 16.229268,5.20819718 20.8334766,5.20819718 C25.4376853,5.20819718 29.166982,8.93760849 29.166982,13.5417025 L29.166982,20.8332473 L12.5002006,20.8332473 Z M16.6667813,32.2917168 C16.6667813,29.9897272 18.5313723,28.1251361 20.8334766,28.1251361 C23.135581,28.1251361 25.0000573,29.9897272 25.0000573,32.2917168 C25.0000573,33.7606426 24.2394537,35.0524305 23.0939622,35.7919381 C23.0939622,35.7919381 23.500978,38.2507722 23.9586701,41.1460877 C23.9586701,42.0103371 23.2607813,42.7082258 22.3960734,42.7082258 L19.2708799,42.7082258 C18.4062866,42.7082258 17.7085125,42.0103371 17.7085125,41.1460877 L18.5732204,35.7919381 C17.4276142,35.0524305 16.6667813,33.760528 16.6667813,32.2917168 Z" id="Shape"></path>
            </g>
        </g>
    </g>
</svg>