<?xml version="1.0" encoding="UTF-8"?>
<svg width="42px" height="50px" viewBox="0 0 42 50" version="1.1" xmlns="http://www.w3.org/2000/svg" xmlns:xlink="http://www.w3.org/1999/xlink">
    <title>icon-set/icon-input-id-black</title>
    <g id="icon-set-Web最新整理" stroke="none" stroke-width="1" fill="none" fill-rule="evenodd">
        <g id="images" transform="translate(-288.000000, -1183.000000)" fill="#000000">
            <g id="icon-set/icon-input-id-black" transform="translate(288.000000, 1183.000000)">
                <path d="M31.994,24.2481 C33.024,24.2571 34.052,24.4861 34.955,24.9821 C39.139,27.2791 42,31.9121 42,37.2561 L42,37.2561 L42,41.5451 C42,46.2141 38.214,50.0001 33.545,50.0001 L33.545,50.0001 L8.455,50.0001 C3.785,50.0001 0,46.2141 0,41.5451 L0,41.5451 L0,37.2561 C0,32.0281 2.738,27.4791 6.775,25.1341 C8.54,24.1091 10.658,23.9791 12.537,24.7441 C13.334,25.0691 13.873,25.5371 14.586,26.0041 C15.217,26.4171 15.886,26.7711 16.583,27.0591 C18.023,27.6531 19.576,27.9581 21.134,27.9581 C23.27,27.9581 25.387,27.3781 27.224,26.2881 C28.021,25.8151 28.687,25.0511 29.506,24.6491 C30.248,24.2851 31.18,24.2411 31.994,24.2481 Z M20.9999,0 C27.6269,0 32.9999,5.373 32.9999,12 C32.9999,18.627 27.6269,24 20.9999,24 C14.3729,24 8.9999,18.627 8.9999,12 C8.9999,5.373 14.3729,0 20.9999,0 Z" id="Combined-Shape"></path>
            </g>
        </g>
    </g>
</svg>