<?xml version="1.0" encoding="UTF-8"?>
<svg width="34px" height="36px" viewBox="0 0 34 36" version="1.1" xmlns="http://www.w3.org/2000/svg" xmlns:xlink="http://www.w3.org/1999/xlink">
    <title>icon-set/icon-dark</title>
    <g id="icon-set-Web最新整理" stroke="none" stroke-width="1" fill="none" fill-rule="evenodd">
        <g id="images" transform="translate(-178.000000, -527.000000)" fill="#FFFFFF">
            <g id="icon-set/icon-dark" transform="translate(178.000000, 527.000000)">
                <path d="M17.501,3.558 C9.758,3.558 3.459,10.036 3.459,18 C3.459,25.964 9.758,32.442 17.501,32.442 C21.816,32.442 25.833,30.367 28.454,27.003 C27.837,27.102 27.211,27.152 26.58,27.152 C19.829,27.152 14.337,21.503 14.337,14.559 C14.337,10.074 16.662,6.061 20.195,3.828 C19.309,3.649 18.406,3.558 17.501,3.558 M17.501,36 C7.85,36 0,27.925 0,18 C0,8.075 7.85,0 17.501,0 C20.483,0 23.438,0.794 26.044,2.297 C26.694,2.671 27.038,3.432 26.897,4.184 C26.756,4.937 26.162,5.513 25.424,5.613 C21.076,6.202 17.796,10.047 17.796,14.559 C17.796,19.541 21.737,23.594 26.58,23.594 C28.265,23.594 29.909,23.095 31.332,22.15 C31.957,21.734 32.773,21.777 33.353,22.257 C33.934,22.736 34.151,23.545 33.891,24.263 C31.354,31.284 24.768,36 17.501,36" id="Fill-1"></path>
            </g>
        </g>
    </g>
</svg>