<?xml version="1.0" encoding="UTF-8"?>
<svg width="30px" height="30px" viewBox="0 0 30 30" version="1.1" xmlns="http://www.w3.org/2000/svg" xmlns:xlink="http://www.w3.org/1999/xlink">
    <title>icon-set/icon-tips</title>
    <g id="icon-set-Web最新整理" stroke="none" stroke-width="1" fill="none" fill-rule="evenodd">
        <g id="images" transform="translate(-1426.000000, -811.000000)" fill="#FFFFFF" fill-rule="nonzero">
            <g id="icon-set/icon-tips" transform="translate(1426.000000, 811.000000)">
                <path d="M25.6066406,4.39335938 C22.773457,1.56029297 19.0066406,0 15,0 C10.9933594,0 7.22654297,1.56029297 4.39335938,4.39335938 C1.56029297,7.22654297 0,10.9933594 0,15 C0,19.0066406 1.56029297,22.773457 4.39335938,25.6066406 C7.22654297,28.439707 10.9933594,30 15,30 C19.0066406,30 22.773457,28.439707 25.6066406,25.6066406 C28.439707,22.773457 30,19.0066406 30,15 C30,10.9933594 28.439707,7.22654297 25.6066406,4.39335938 Z M15,4.1015625 C16.7769727,4.1015625 18.2226562,5.54724609 18.2226562,7.32421875 C18.2226562,9.10119141 16.7769727,10.546875 15,10.546875 C13.2230273,10.546875 11.7773438,9.10119141 11.7773438,7.32421875 C11.7773438,5.54724609 13.2230273,4.1015625 15,4.1015625 Z M19.1015625,24.609375 L10.8984375,24.609375 L10.8984375,22.8515625 L12.65625,22.8515625 L12.65625,14.0625 L10.8984375,14.0625 L10.8984375,12.3046875 L17.34375,12.3046875 L17.34375,22.8515625 L19.1015625,22.8515625 L19.1015625,24.609375 Z" id="Shape"></path>
            </g>
        </g>
    </g>
</svg>