<?xml version="1.0" encoding="UTF-8"?>
<svg width="60px" height="60px" viewBox="0 0 60 60" version="1.1" xmlns="http://www.w3.org/2000/svg" xmlns:xlink="http://www.w3.org/1999/xlink">
    <title>icon-set/icon-app-bk</title>
    <g id="icon-set-Web最新整理" stroke="none" stroke-width="1" fill="none" fill-rule="evenodd">
        <g id="images" transform="translate(-165.000000, -705.000000)" fill="#353535" fill-rule="nonzero">
            <g id="icon-set/icon-app-bk" transform="translate(165.000000, 705.000000)">
                <path d="M44.465473,0 L14.5345269,0 C12.0409207,0 10,1.82228571 10,4.05257142 L10,55.9457142 C10,58.176 12.0409207,60 14.5345269,60 L44.465473,60 C46.9590793,60 49,58.1794287 49,55.9474287 L49,4.05257142 C49,1.82228571 46.9590793,0 44.465473,0 Z M24.7122762,2.92114286 L34.2877238,2.92114286 C34.5907928,2.92114286 34.8363171,3.14057142 34.8363171,3.41314287 C34.8363171,3.684 34.5907928,3.90342858 34.2877238,3.90342858 L24.7122762,3.90342858 C24.4092072,3.90342858 24.1636829,3.684 24.1636829,3.41314287 C24.1636829,3.14057142 24.4092072,2.92114286 24.7122762,2.92114286 Z M29.5,55.1165715 C28.2474425,55.1165715 27.2327366,54.2097144 27.2327366,53.0885715 C27.2327366,51.9674286 28.2474425,51.0622857 29.5,51.0622857 C30.7525575,51.0622857 31.7672634,51.9674286 31.7672634,53.0885715 C31.7672634,54.2097144 30.7525575,55.1165715 29.5,55.1165715 Z M42.8446292,49.284 L15.8446292,49.284 L15.8446292,6.42685713 L42.8446292,6.42685713 L42.8446292,49.284 Z" id="Shape"></path>
            </g>
        </g>
    </g>
</svg>