<?xml version="1.0" encoding="UTF-8"?>
<svg width="15px" height="15px" viewBox="0 0 15 15" version="1.1" xmlns="http://www.w3.org/2000/svg" xmlns:xlink="http://www.w3.org/1999/xlink">
    <title>icon-set/icon-close2</title>
    <g id="icon-set-Web最新整理" stroke="none" stroke-width="1" fill="none" fill-rule="evenodd">
        <g id="images" transform="translate(-557.000000, -207.000000)" fill="#000000" fill-rule="nonzero">
            <g id="icon-set/icon-close2" transform="translate(557.000000, 207.000000)">
                <path d="M9.152073,7.4995122 L14.760366,1.8909756 C14.914634,1.7365854 14.999756,1.5306098 15,1.3109756 C15,1.0912195 14.914878,0.885 14.760366,0.7308537 L14.268902,0.2395122 C14.11439,0.0847561 13.908415,0 13.688537,0 C13.469024,0 13.263049,0.0847561 13.108537,0.2395122 L7.500244,5.8476829 L1.891707,0.2395122 C1.737439,0.0847561 1.531341,0 1.311585,0 C1.092073,0 0.885976,0.0847561 0.731707,0.2395122 L0.24,0.7308537 C-0.08,1.0508537 -0.08,1.5713415 0.24,1.8909756 L5.848415,7.4995122 L0.24,13.1078049 C0.08561,13.262439 0.00061,13.4684146 0.00061,13.6880488 C0.00061,13.9076829 0.08561,14.1136585 0.24,14.2681707 L0.731585,14.7595122 C0.885854,14.9141463 1.092073,14.9990244 1.311463,14.9990244 C1.53122,14.9990244 1.737317,14.9141463 1.891585,14.7595122 L7.500122,9.1512195 L13.108415,14.7595122 C13.262927,14.9141463 13.468902,14.9990244 13.688415,14.9990244 L13.688659,14.9990244 C13.908293,14.9990244 14.114268,14.9141463 14.26878,14.7595122 L14.760244,14.2681707 C14.914512,14.1137805 14.999634,13.9076829 14.999634,13.6880488 C14.999634,13.4684146 14.914512,13.262439 14.760244,13.1079268 L9.152073,7.4995122 Z" id="Path"></path>
            </g>
        </g>
    </g>
</svg>