<?xml version="1.0" encoding="UTF-8"?>
<svg width="46px" height="47px" viewBox="0 0 46 47" version="1.1" xmlns="http://www.w3.org/2000/svg" xmlns:xlink="http://www.w3.org/1999/xlink">
    <title>icon-set/icon-maintenance</title>
    <g id="icon-set-Web最新整理" stroke="none" stroke-width="1" fill="none" fill-rule="evenodd">
        <g id="images" transform="translate(-56.000000, -422.000000)" fill="#000000" fill-rule="nonzero">
            <g id="icon-set/icon-maintenance" transform="translate(56.000000, 422.000000)">
                <path d="M36.4033274,29.8351052 C36.6950045,29.8351052 36.9551211,30.0181578 37.0535157,30.2925307 L37.0535157,30.2925307 L40.5412646,40.0316315 L45.2934978,40.0316315 C45.6751121,40.0316315 45.9843229,40.3406359 45.9843229,40.7219956 L45.9843229,40.7219956 L45.9843229,46.2434649 C45.9843229,46.6246184 45.6751121,46.9336228 45.2934978,46.9336228 L45.2934978,46.9336228 L0.690618834,46.9336228 C0.309210762,46.9336228 0,46.6246184 0,46.2434649 L0,46.2434649 L0,40.7219956 C0,40.3406359 0.309210762,40.0316315 0.690618834,40.0316315 L0.690618834,40.0316315 L5.82384753,40.0316315 L9.31180269,30.2925307 C9.41019731,30.0181578 9.67052018,29.8351052 9.96219731,29.8351052 L9.96219731,29.8351052 L36.4033274,29.8351052 Z M30.7124666,14.9336846 C31.0057497,14.9336846 31.2677133,15.1109977 31.3664423,15.3769673 L31.3664423,15.3769673 L34.9586417,25.0397312 C35.1206318,25.4752265 34.7854512,25.9336846 34.3048734,25.9336846 L34.3048734,25.9336846 L11.6951112,25.9336846 C11.2145335,25.9336846 10.8791454,25.4752265 11.0411356,25.0397312 L11.0411356,25.0397312 L14.6335424,15.3769673 C14.7322713,15.1109977 14.9938201,14.9336846 15.2871032,14.9336846 L15.2871032,14.9336846 L30.7124666,14.9336846 Z M25.7183319,0 C26.010009,0 26.2699193,0.183052631 26.3685202,0.457631579 L26.3685202,0.457631579 L29.526018,9.27384211 C29.6869148,9.72343421 29.3537758,10.1965263 28.8758296,10.1965263 L28.8758296,10.1965263 L17.4896951,10.1965263 C17.0119552,10.1965263 16.6781973,9.72343421 16.8395068,9.27384211 L16.8395068,9.27384211 L19.996592,0.457631579 C20.0951929,0.183052631 20.3553095,0 20.6469866,0 L20.6469866,0 L25.7183319,0 Z" id="Combined-Shape"></path>
            </g>
        </g>
    </g>
</svg>