<?xml version="1.0" encoding="UTF-8"?>
<svg width="15px" height="12px" viewBox="0 0 15 12" version="1.1" xmlns="http://www.w3.org/2000/svg" xmlns:xlink="http://www.w3.org/1999/xlink">
    <title>icon-set/mail-w</title>
    <g id="icon-set-Web最新整理" stroke="none" stroke-width="1" fill="none" fill-rule="evenodd">
        <g id="images" transform="translate(-301.000000, -1284.000000)" fill="#FFFFFF" fill-rule="nonzero">
            <g id="icon-set/mail-w" transform="translate(301.000000, 1284.000000)">
                <path d="M15,2.22222222 L15,9.54069851 C15,10.4066275 14.2750139,11.1111111 13.3838546,11.1111111 L13.3838546,11.1111111 L1.61620403,11.1111111 C0.72501543,11.1111111 0,10.4066275 0,9.54069851 L0,9.54069851 L0,2.22222222 L6.2770217,6.28853268 L6.2770217,6.28853268 L6.42976979,6.37701852 C6.74572753,6.54021473 7.12282071,6.62178594 7.5,6.62178594 C7.93995461,6.62178594 8.3800557,6.51072999 8.72289041,6.28864655 L8.72289041,6.28864655 L8.72309549,6.28850421 L15,2.22222222 Z M13.4541297,0 C14.1693415,0 14.778416,0.441858895 15,1.05521761 L15,1.05521761 L8.24441445,5.36572535 L8.24441445,5.36572535 L8.11690119,5.43413868 C7.71166078,5.61626944 7.11266079,5.59348471 6.75594132,5.36586722 L6.75573379,5.36575372 L0,1.05521761 C0.221613684,0.441858895 0.830658487,0 1.54589997,0 L1.54589997,0 L13.4541297,0 Z" id="Shape"></path>
            </g>
        </g>
    </g>
</svg>