<?xml version="1.0" encoding="UTF-8"?>
<svg width="15px" height="15px" viewBox="0 0 15 15" version="1.1" xmlns="http://www.w3.org/2000/svg" xmlns:xlink="http://www.w3.org/1999/xlink">
    <title>icon-set/time-gl</title>
    <g id="icon-set-Web最新整理" stroke="none" stroke-width="1" fill="none" fill-rule="evenodd">
        <g id="images" transform="translate(-187.000000, -1012.000000)" fill="#B0B0B0" fill-rule="nonzero">
            <g id="icon-set/time-gl" transform="translate(187.000000, 1012.000000)">
                <path d="M7.5,0 C11.635752,0 15,3.36424805 15,7.5 C15,11.635752 11.635752,15 7.5,15 C3.36424805,15 0,11.635752 0,7.5 C0,3.36424805 3.36424805,0 7.5,0 Z M7.5,1.16188477 C4.00561523,1.16188477 1.16188477,4.00561523 1.16188477,7.5 C1.16188477,10.9943848 4.00561523,13.8381152 7.5,13.8381152 C10.9943848,13.8381152 13.8381152,10.9943848 13.8381152,7.5 C13.8381152,4.00561523 10.9949707,1.16188477 7.5,1.16188477 Z M7.54542201,3.40909091 C7.87217704,3.40909091 8.13629856,3.66953635 8.13629856,3.99174355 L8.13629856,3.99174355 L8.13629856,7.19624493 L10.2634244,8.76937768 C10.524596,8.96224364 10.5777838,9.3275548 10.3815699,9.58453311 C10.2657485,9.73834989 10.0884856,9.81818182 9.90827269,9.81818182 C9.78479349,9.81818182 9.66068856,9.78030793 9.5543427,9.70165129 L9.5543427,9.70165129 L7.19089608,7.95372275 C7.04199995,7.84418523 6.95454545,7.67112299 6.95454545,7.48760063 L6.95454545,7.48760063 L6.95454545,3.99174355 C6.95454545,3.66953635 7.21866698,3.40909091 7.54542201,3.40909091 Z" id="Shape"></path>
            </g>
        </g>
    </g>
</svg>