<svg xmlns="http://www.w3.org/2000/svg" viewBox="0 0 100 16.46"><defs><style>.cls-1{fill:#ce4242;}.cls-2{fill:#61d81d;}.cls-3{fill:#fff;}</style></defs><g><g><polygon class="cls-1" points="95.59 8.36 98.01 13.14 100 3.61 95.59 8.36"/><polygon class="cls-2" points="83.39 3.31 81.34 12.82 85.79 8.05 83.39 3.31"/><path class="cls-3" d="M3.34,15.74A5.48,5.48,0,0,1,.86,13.6,6.23,6.23,0,0,1,0,10.29a10.34,10.34,0,0,1,.22-2,10.43,10.43,0,0,1,3.5-6.06A10.56,10.56,0,0,1,10.64,0a12.46,12.46,0,0,1,3,.31,7.36,7.36,0,0,1,1.51.57,1.15,1.15,0,0,1,.6,1.25L15.3,4a1.12,1.12,0,0,1-1.59.77A4.15,4.15,0,0,0,13,4.54a9.83,9.83,0,0,0-2.78-.34,5.49,5.49,0,0,0-3.44,1A5,5,0,0,0,5,8.24a7.88,7.88,0,0,0-.17,1.51,2.28,2.28,0,0,0,.83,1.94,4.84,4.84,0,0,0,2.78.62,11.62,11.62,0,0,0,3-.36c.24-.06.47-.14.7-.21A1.12,1.12,0,0,1,13.59,13l-.33,1.52a1.09,1.09,0,0,1-.6.78,12.5,12.5,0,0,1-5.5,1.12A9.11,9.11,0,0,1,3.34,15.74ZM17.62.34H25a5.7,5.7,0,0,1,3.71,1.12A3.81,3.81,0,0,1,30.06,4.6a7.32,7.32,0,0,1-.14,1.31,7,7,0,0,1-1.37,3,6.43,6.43,0,0,1-2.49,1.9l1.1,3.88a1.13,1.13,0,0,1-1.08,1.44H23.64a1.14,1.14,0,0,1-1.09-.83l-1.07-3.81H19.91l-.79,3.74a1.13,1.13,0,0,1-1.1.9H15.66a1.14,1.14,0,0,1-1.1-1.37ZM22.45,7.8a3.4,3.4,0,0,0,1.83-.41,2.21,2.21,0,0,0,.86-1.47,4.56,4.56,0,0,0,.09-.67,1,1,0,0,0-.47-.94,3.31,3.31,0,0,0-1.52-.26H21.5L20.71,7.8ZM33.38.34h2.37a1.13,1.13,0,0,1,1.1,1.36L34,15.24a1.14,1.14,0,0,1-1.1.9H30.53a1.13,1.13,0,0,1-1.1-1.37L32.29,1.24A1.1,1.1,0,0,1,33.38.34Zm6.56,15.4a5.48,5.48,0,0,1-2.48-2.14,6.27,6.27,0,0,1-.87-3.32,9.64,9.64,0,0,1,.22-2,10.46,10.46,0,0,1,3.5-6.07A10.58,10.58,0,0,1,47.22,0a12.49,12.49,0,0,1,3,.31A7.83,7.83,0,0,1,51.7.88a1.15,1.15,0,0,1,.6,1.25L51.89,4a1.12,1.12,0,0,1-1.59.77,4.78,4.78,0,0,0-.75-.27,9.9,9.9,0,0,0-2.79-.34,5.48,5.48,0,0,0-3.43,1,5,5,0,0,0-1.74,3,7.25,7.25,0,0,0-.18,1.51,2.28,2.28,0,0,0,.84,1.94,4.82,4.82,0,0,0,2.78.62A11.62,11.62,0,0,0,48,12c.24-.06.46-.14.7-.21A1.13,1.13,0,0,1,50.18,13l-.33,1.52a1.11,1.11,0,0,1-.6.78,12.53,12.53,0,0,1-5.5,1.12A9.09,9.09,0,0,1,39.94,15.74ZM55.12.34H57.5A1.12,1.12,0,0,1,58.6,1.7l-1,4.75L63.41.67a1.13,1.13,0,0,1,.8-.32h3.68a.56.56,0,0,1,.4,1L61.55,8l4.29,7.28a.57.57,0,0,1-.49.85H61.48a1.16,1.16,0,0,1-1-.55l-3.56-6-1.21,5.7a1.15,1.15,0,0,1-1.1.9H52.26a1.13,1.13,0,0,1-1.1-1.36L54,1.24A1.12,1.12,0,0,1,55.12.34ZM72,.34H81.1A1.13,1.13,0,0,1,82.2,1.7l-.35,1.67a1.12,1.12,0,0,1-1.1.9H74.89l-.45,2.17h3.49A1.12,1.12,0,0,1,79,7.8l-.29,1.34a1.13,1.13,0,0,1-1.1.88h-4l-.48,2.17h5.39a1.13,1.13,0,0,1,1.1,1.36l-.35,1.67a1.14,1.14,0,0,1-1.1.9H69.1A1.13,1.13,0,0,1,68,14.76L70.86,1.22A1.12,1.12,0,0,1,72,.34ZM88,8.2l-3.56-7A.57.57,0,0,1,85,.34h3.74a1.13,1.13,0,0,1,1,.62l1.76,3.51L95,.7a1.11,1.11,0,0,1,.82-.36h3.57a.56.56,0,0,1,.41,1L93.36,8.2,97,15.31a.57.57,0,0,1-.5.83H92.72a1.12,1.12,0,0,1-1-.62l-1.83-3.6-3.58,3.84a1.11,1.11,0,0,1-.82.36H81.93a.57.57,0,0,1-.42-1Z"/></g></g></svg>